<svg id="Layer_1" data-name="Layer 1" xmlns="http://www.w3.org/2000/svg" viewBox="0 0 150 150"><defs><style>.cls-1{fill:#f7f7f5;}.cls-2{fill:#3c3b5c;}.cls-3{fill:#eb5160;}.cls-4{fill:#e5e5e5;}.cls-5{fill:#d84e62;}</style></defs><title>e2e_computer_repair</title><path class="cls-1" d="M125.31,66.75V98a4.76,4.76,0,0,1-4.76,4.76H30.72A4.76,4.76,0,0,1,26,98V43.88a4.76,4.76,0,0,1,4.76-4.76h89.83a4.76,4.76,0,0,1,4.76,4.76V54.53"/><path class="cls-2" d="M120.54,104.37H30.72a6.4,6.4,0,0,1-6.4-6.4V43.88a6.4,6.4,0,0,1,6.4-6.4h89.83a6.4,6.4,0,0,1,6.4,6.4V54.53a1.63,1.63,0,0,1-3.27,0V43.88a3.13,3.13,0,0,0-3.13-3.13H30.72a3.13,3.13,0,0,0-3.13,3.13V98a3.13,3.13,0,0,0,3.13,3.13h89.83A3.13,3.13,0,0,0,123.67,98V66.75a1.63,1.63,0,0,1,3.27,0V98A6.4,6.4,0,0,1,120.54,104.37Z"/><path class="cls-2" d="M125.31,62.67A1.63,1.63,0,0,1,123.67,61a1.67,1.67,0,0,1,1.63-1.67A1.6,1.6,0,0,1,126.94,61V61A1.63,1.63,0,0,1,125.31,62.67Z"/><path class="cls-2" d="M118.76,97H32.31V45.27h86.45ZM35.57,93.76h79.92V48.54H35.57Z"/><path class="cls-1" d="M16.45,102.74h117.1a.86.86,0,0,1,.86.86v2.92a.86.86,0,0,1-.23.58l-3.07,3.35a.86.86,0,0,1-.63.28h-111a.86.86,0,0,1-.64-.29L15.81,107a.86.86,0,0,1-.22-.57v-2.8A.86.86,0,0,1,16.45,102.74Z"/><path class="cls-2" d="M130.49,112.35h-111a2.49,2.49,0,0,1-1.86-.84l-3.07-3.46A2.49,2.49,0,0,1,14,106.4V103.6a2.5,2.5,0,0,1,2.49-2.49h117.1A2.5,2.5,0,0,1,136,103.6v2.92a2.49,2.49,0,0,1-.65,1.68l-3.07,3.35A2.5,2.5,0,0,1,130.49,112.35ZM19.87,109.08H130.14l2.63-2.87v-1.84H17.23v1.73Zm113.68-4.71h0Z"/><polygon class="cls-3" points="65.83 110.72 62.88 102.74 87.66 102.74 84.71 110.72 65.83 110.72"/><path class="cls-2" d="M85.85,112.35H64.69L60.53,101.1H90ZM67,109.08h16.6l1.74-4.71H65.23Z"/><polygon class="cls-4" points="35.57 48.54 35.59 93.77 48.26 93.77 58.85 48.54 35.57 48.54"/><polygon class="cls-5" points="65.22 104.37 66.69 109.08 71.16 109.08 69.77 104.37 65.22 104.37"/></svg>