<?xml version="1.0" encoding="utf-8"?>
<!-- Generator: Adobe Illustrator 21.1.0, SVG Export Plug-In . SVG Version: 6.00 Build 0)  -->
<svg version="1.1" id="Layer_1" xmlns="http://www.w3.org/2000/svg" xmlns:xlink="http://www.w3.org/1999/xlink" x="0px" y="0px"
	 viewBox="0 0 150 150" style="enable-background:new 0 0 150 150;" xml:space="preserve">
<style type="text/css">
	.st0{fill:#EB5160;}
	.st1{fill:#E5E5E5;}
	.st2{fill:#3C3B5C;}
</style>
<g>
	<path class="st0" d="M52.2,126.8c0,0,0-20.8,22.8-22.2c22.8-1.3,22.2,22.2,22.2,22.2H85.3c0,0-2.2-12.2-10.7-10.5
		c-8.5,1.7-10.7,7.5-11,11.2L52.2,126.8z"/>
	<rect x="24.2" y="23.5" class="st1" width="101.5" height="19.7"/>
	<rect x="23.2" y="41.8" class="st1" width="13.6" height="58.6"/>
	<polygon class="st1" points="95.9,90.4 89.7,97.1 89.7,80.6 96.5,80.6 	"/>
	<circle class="st0" cx="35.2" cy="33" r="2.4"/>
	<circle class="st0" cx="48.5" cy="33" r="2.4"/>
	<circle class="st0" cx="61.7" cy="33" r="2.4"/>
	<path class="st2" d="M35.2,28.2c-2.7,0-4.9,2.2-4.9,4.9s2.2,4.9,4.9,4.9s4.9-2.2,4.9-4.9S38,28.2,35.2,28.2z M35.2,34.9
		c-1,0-1.8-0.8-1.8-1.8c0-1,0.8-1.8,1.8-1.8c1,0,1.8,0.8,1.8,1.8C37,34.1,36.2,34.9,35.2,34.9z"/>
	<path class="st2" d="M48.5,28.2c-2.7,0-4.9,2.2-4.9,4.9s2.2,4.9,4.9,4.9s4.9-2.2,4.9-4.9S51.2,28.2,48.5,28.2z M48.5,34.9
		c-1,0-1.8-0.8-1.8-1.8c0-1,0.8-1.8,1.8-1.8c1,0,1.8,0.8,1.8,1.8C50.3,34.1,49.5,34.9,48.5,34.9z"/>
	<path class="st2" d="M61.7,28.2c-2.7,0-4.9,2.2-4.9,4.9s2.2,4.9,4.9,4.9c2.7,0,4.9-2.2,4.9-4.9S64.5,28.2,61.7,28.2z M61.7,34.9
		c-1,0-1.8-0.8-1.8-1.8c0-1,0.8-1.8,1.8-1.8s1.8,0.8,1.8,1.8C63.5,34.1,62.7,34.9,61.7,34.9z"/>
	<path class="st2" d="M122.5,21.7H27.5c-3.2,0-5.8,2.6-5.8,5.8v69.6c0,3.2,2.6,5.8,5.8,5.8h10.2c-0.5,0.6-0.4,1.5,0.1,2.1l7.6,7.6
		c-0.6,1.2-1.1,2.4-1.5,3.6H33.1c-0.9,0-1.6,0.7-1.6,1.6v9c0,0.9,0.7,1.6,1.6,1.6h31.1c0.9,0,1.6-0.7,1.6-1.6c0-4.8,3.9-8.7,8.7-8.7
		c4.8,0,8.7,3.9,8.7,8.7c0,0.9,0.7,1.6,1.6,1.6H116c0.9,0,1.6-0.7,1.6-1.6v-9c0-0.9-0.7-1.6-1.6-1.6h-10.7c-0.4-1.2-0.9-2.4-1.5-3.6
		l7.6-7.6c0.6-0.6,0.6-1.5,0.1-2.1h11c3.2,0,5.8-2.6,5.8-5.8v-39c0-0.9-0.7-1.6-1.6-1.6c-0.9,0-1.6,0.7-1.6,1.6v39
		c0,1.5-1.2,2.6-2.6,2.6h-14.2l-9.3-9.3V79.6c0-0.9-0.7-1.6-1.6-1.6h-2.8v-9.7l2.2-2.1c0.4-0.4,0.6-1,0.4-1.6l-3.8-12.2
		c-0.2-0.7-0.8-1.1-1.5-1.1h-4.2c-0.7,0-1.3,0.5-1.5,1.1l-3.8,12.2c-0.2,0.6,0,1.2,0.4,1.6l2.2,2.1v9.7h-2.8c-0.9,0-1.6,0.7-1.6,1.6
		v4.1H68.4v-2.4l6.1-6.1c0.3-0.3,0.5-0.7,0.5-1.1V61.2c0-0.4-0.2-0.8-0.5-1.1L66,51.8c-0.5-0.4-1.1-0.6-1.7-0.3
		c-0.6,0.2-1,0.8-1,1.5V67l-4.1,2.6L55.1,67v-0.9c0-0.9-0.7-1.6-1.6-1.6S52,65.2,52,66.1v1.8c0,0.5,0.3,1,0.7,1.3l5.7,3.6
		c0.5,0.3,1.2,0.3,1.7,0l5.7-3.6c0.5-0.3,0.7-0.8,0.7-1.3V56.7l5.3,5.2v11.6l-6.1,6.1c-0.3,0.3-0.5,0.7-0.5,1.1v3.1
		c-0.7,0.1-1.3,0.8-1.3,1.5V96c-1.2,0.4-2.4,0.9-3.6,1.5l-7.1-7.1v-9.7c0-0.4-0.2-0.8-0.5-1.1l-6.1-6.1V61.9l5.3-5.2v2
		c0,0.9,0.7,1.6,1.6,1.6s1.6-0.7,1.6-1.6v-5.8c0-0.6-0.4-1.2-1-1.5c-0.6-0.2-1.3-0.1-1.7,0.3L44,60.1c-0.3,0.3-0.5,0.7-0.5,1.1v12.9
		c0,0.4,0.2,0.8,0.5,1.1l6.1,6.1v9.1l-9.3,9.3H27.5c-1.5,0-2.6-1.2-2.6-2.6V44.6h100.4v6.1c0,0.9,0.7,1.6,1.6,1.6s1.6-0.7,1.6-1.6
		V27.5C128.3,24.3,125.7,21.7,122.5,21.7z M87.9,66.5l-2-1.8L89,54.5h1.9L94,64.6l-2,1.8c-0.3,0.3-0.5,0.7-0.5,1.2v10.4h-3.2V67.6
		C88.4,67.2,88.2,66.8,87.9,66.5z M95.9,81.2v9.2l-7.1,7.1c-1.2-0.6-2.4-1.1-3.6-1.5V85.3c0-0.8-0.5-1.4-1.3-1.5v-2.6L95.9,81.2
		L95.9,81.2z M60.8,100.8c1.7-0.9,3.4-1.6,5.2-2.2c0.7-0.2,1.1-0.8,1.1-1.5V86.9H82v10.3c0,0.7,0.5,1.3,1.1,1.5
		c1.8,0.5,3.5,1.3,5.2,2.2c0.6,0.3,1.4,0.2,1.9-0.3l7.3-7.3l9.1,9.1c0,0,0,0,0,0l1.4,1.4l-7.3,7.3c-0.5,0.5-0.6,1.2-0.3,1.9
		c0.9,1.7,1.6,3.4,2.2,5.2c0.2,0.7,0.8,1.1,1.5,1.1h10.3v5.9h-16c-0.8-12.4-11.2-22.3-23.8-22.3c-3.4,0-6.6,0.7-9.7,2.1
		c-0.8,0.4-1.2,1.3-0.8,2.1c0.4,0.8,1.3,1.2,2.1,0.8c2.7-1.2,5.5-1.8,8.4-1.8c10.9,0,19.9,8.5,20.7,19.1h-8.9
		c-0.8-5.8-5.8-10.3-11.8-10.3c-6,0-11,4.5-11.8,10.3h-8.9c0.4-5.2,2.7-9.9,6.5-13.5c0.6-0.6,0.7-1.6,0.1-2.2
		c-0.6-0.6-1.6-0.7-2.2-0.1c-4.4,4.1-7.1,9.8-7.5,15.8h-16v-5.9H45c0.7,0,1.3-0.5,1.5-1.1c0.5-1.8,1.3-3.5,2.2-5.2
		c0.3-0.6,0.2-1.4-0.3-1.9l-7.3-7.3l1.4-1.4c0,0,0,0,0,0l9.1-9.1l7.3,7.3C59.4,101,60.2,101.2,60.8,100.8z M24.8,41.4v-14
		c0-1.5,1.2-2.6,2.6-2.6h95.1c1.5,0,2.6,1.2,2.6,2.6v14H24.8z"/>
</g>
</svg>
